<svg xmlns="http://www.w3.org/2000/svg" xmlns:xlink="http://www.w3.org/1999/xlink" id="processonSvg1000" viewBox="176.0 189.0 585.0 1028.5" width="585.0" height="1028.5"><defs id="ProcessOnDefs1001"><marker id="ProcessOnMarker1007" markerUnits="userSpaceOnUse" orient="auto" markerWidth="16.23606797749979" markerHeight="10.550836550532098" viewBox="-1.0 -1.3763819204711736 16.23606797749979 10.550836550532098" refX="-1.0" refY="3.8990363547948754"><path id="ProcessOnPath1008" d="M12.0 3.8990363547948754L0.0 7.798072709589751V0.0Z" stroke="#323232" stroke-width="2.0" fill="#323232" transform="matrix(1.0,0.0,0.0,1.0,0.0,0.0)"/></marker><marker id="ProcessOnMarker1011" markerUnits="userSpaceOnUse" orient="auto" markerWidth="16.23606797749979" markerHeight="10.550836550532098" viewBox="-1.0 -1.3763819204711736 16.23606797749979 10.550836550532098" refX="-1.0" refY="3.8990363547948754"><path id="ProcessOnPath1012" d="M12.0 3.8990363547948754L0.0 7.798072709589751V0.0Z" stroke="#323232" stroke-width="2.0" fill="#323232" transform="matrix(1.0,0.0,0.0,1.0,0.0,0.0)"/></marker><marker id="ProcessOnMarker1045" markerUnits="userSpaceOnUse" orient="auto" markerWidth="16.23606797749979" markerHeight="10.550836550532098" viewBox="-1.0 -1.3763819204711736 16.23606797749979 10.550836550532098" refX="-1.0" refY="3.8990363547948754"><path id="ProcessOnPath1046" d="M12.0 3.8990363547948754L0.0 7.798072709589751V0.0Z" stroke="#323232" stroke-width="2.0" fill="#323232" transform="matrix(1.0,0.0,0.0,1.0,0.0,0.0)"/></marker><marker id="ProcessOnMarker1049" markerUnits="userSpaceOnUse" orient="auto" markerWidth="16.23606797749979" markerHeight="10.550836550532098" viewBox="-1.0 -1.3763819204711736 16.23606797749979 10.550836550532098" refX="-1.0" refY="3.8990363547948754"><path id="ProcessOnPath1050" d="M12.0 3.8990363547948754L0.0 7.798072709589751V0.0Z" stroke="#323232" stroke-width="2.0" fill="#323232" transform="matrix(1.0,0.0,0.0,1.0,0.0,0.0)"/></marker><marker id="ProcessOnMarker1053" markerUnits="userSpaceOnUse" orient="auto" markerWidth="16.23606797749979" markerHeight="10.550836550532098" viewBox="-1.0 -1.3763819204711736 16.23606797749979 10.550836550532098" refX="-1.0" refY="3.8990363547948754"><path id="ProcessOnPath1054" d="M12.0 3.8990363547948754L0.0 7.798072709589751V0.0Z" stroke="#323232" stroke-width="2.0" fill="#323232" transform="matrix(1.0,0.0,0.0,1.0,0.0,0.0)"/></marker><marker id="ProcessOnMarker1057" markerUnits="userSpaceOnUse" orient="auto" markerWidth="16.23606797749979" markerHeight="10.550836550532098" viewBox="-1.0 -1.3763819204711736 16.23606797749979 10.550836550532098" refX="-1.0" refY="3.8990363547948754"><path id="ProcessOnPath1058" d="M12.0 3.8990363547948754L0.0 7.798072709589751V0.0Z" stroke="#323232" stroke-width="2.0" fill="#323232" transform="matrix(1.0,0.0,0.0,1.0,0.0,0.0)"/></marker><marker id="ProcessOnMarker1061" markerUnits="userSpaceOnUse" orient="auto" markerWidth="16.23606797749979" markerHeight="10.550836550532098" viewBox="-1.0 -1.3763819204711736 16.23606797749979 10.550836550532098" refX="-1.0" refY="3.8990363547948754"><path id="ProcessOnPath1062" d="M12.0 3.8990363547948754L0.0 7.798072709589751V0.0Z" stroke="#323232" stroke-width="2.0" fill="#323232" transform="matrix(1.0,0.0,0.0,1.0,0.0,0.0)"/></marker><marker id="ProcessOnMarker1065" markerUnits="userSpaceOnUse" orient="auto" markerWidth="16.23606797749979" markerHeight="10.550836550532098" viewBox="-1.0 -1.3763819204711736 16.23606797749979 10.550836550532098" refX="-1.0" refY="3.8990363547948754"><path id="ProcessOnPath1066" d="M12.0 3.8990363547948754L0.0 7.798072709589751V0.0Z" stroke="#323232" stroke-width="2.0" fill="#323232" transform="matrix(1.0,0.0,0.0,1.0,0.0,0.0)"/></marker><marker id="ProcessOnMarker1073" markerUnits="userSpaceOnUse" orient="auto" markerWidth="16.23606797749979" markerHeight="10.550836550532098" viewBox="-1.0 -1.3763819204711736 16.23606797749979 10.550836550532098" refX="-1.0" refY="3.8990363547948754"><path id="ProcessOnPath1074" d="M12.0 3.8990363547948754L0.0 7.798072709589751V0.0Z" stroke="#323232" stroke-width="2.0" fill="#323232" transform="matrix(1.0,0.0,0.0,1.0,0.0,0.0)"/></marker><marker id="ProcessOnMarker1108" markerUnits="userSpaceOnUse" orient="auto" markerWidth="16.23606797749979" markerHeight="10.550836550532098" viewBox="-1.0 -1.3763819204711736 16.23606797749979 10.550836550532098" refX="-1.0" refY="3.8990363547948754"><path id="ProcessOnPath1109" d="M12.0 3.8990363547948754L0.0 7.798072709589751V0.0Z" stroke="#323232" stroke-width="2.0" fill="#323232" transform="matrix(1.0,0.0,0.0,1.0,0.0,0.0)"/></marker><marker id="ProcessOnMarker1112" markerUnits="userSpaceOnUse" orient="auto" markerWidth="16.23606797749979" markerHeight="10.550836550532098" viewBox="-1.0 -1.3763819204711736 16.23606797749979 10.550836550532098" refX="-1.0" refY="3.8990363547948754"><path id="ProcessOnPath1113" d="M12.0 3.8990363547948754L0.0 7.798072709589751V0.0Z" stroke="#323232" stroke-width="2.0" fill="#323232" transform="matrix(1.0,0.0,0.0,1.0,0.0,0.0)"/></marker><marker id="ProcessOnMarker1116" markerUnits="userSpaceOnUse" orient="auto" markerWidth="16.23606797749979" markerHeight="10.550836550532098" viewBox="-1.0 -1.3763819204711736 16.23606797749979 10.550836550532098" refX="-1.0" refY="3.8990363547948754"><path id="ProcessOnPath1117" d="M12.0 3.8990363547948754L0.0 7.798072709589751V0.0Z" stroke="#323232" stroke-width="2.0" fill="#323232" transform="matrix(1.0,0.0,0.0,1.0,0.0,0.0)"/></marker><marker id="ProcessOnMarker1120" markerUnits="userSpaceOnUse" orient="auto" markerWidth="16.23606797749979" markerHeight="10.550836550532098" viewBox="-1.0 -1.3763819204711736 16.23606797749979 10.550836550532098" refX="-1.0" refY="3.8990363547948754"><path id="ProcessOnPath1121" d="M12.0 3.8990363547948754L0.0 7.798072709589751V0.0Z" stroke="#323232" stroke-width="2.0" fill="#323232" transform="matrix(1.0,0.0,0.0,1.0,0.0,0.0)"/></marker><marker id="ProcessOnMarker1124" markerUnits="userSpaceOnUse" orient="auto" markerWidth="16.23606797749979" markerHeight="10.550836550532098" viewBox="-1.0 -1.3763819204711736 16.23606797749979 10.550836550532098" refX="-1.0" refY="3.8990363547948754"><path id="ProcessOnPath1125" d="M12.0 3.8990363547948754L0.0 7.798072709589751V0.0Z" stroke="#323232" stroke-width="2.0" fill="#323232" transform="matrix(1.0,0.0,0.0,1.0,0.0,0.0)"/></marker><marker id="ProcessOnMarker1128" markerUnits="userSpaceOnUse" orient="auto" markerWidth="16.23606797749979" markerHeight="10.550836550532098" viewBox="-1.0 -1.3763819204711736 16.23606797749979 10.550836550532098" refX="-1.0" refY="3.8990363547948754"><path id="ProcessOnPath1129" d="M12.0 3.8990363547948754L0.0 7.798072709589751V0.0Z" stroke="#323232" stroke-width="2.0" fill="#323232" transform="matrix(1.0,0.0,0.0,1.0,0.0,0.0)"/></marker><marker id="ProcessOnMarker1132" markerUnits="userSpaceOnUse" orient="auto" markerWidth="16.23606797749979" markerHeight="10.550836550532098" viewBox="-1.0 -1.3763819204711736 16.23606797749979 10.550836550532098" refX="-1.0" refY="3.8990363547948754"><path id="ProcessOnPath1133" d="M12.0 3.8990363547948754L0.0 7.798072709589751V0.0Z" stroke="#323232" stroke-width="2.0" fill="#323232" transform="matrix(1.0,0.0,0.0,1.0,0.0,0.0)"/></marker><marker id="ProcessOnMarker1136" markerUnits="userSpaceOnUse" orient="auto" markerWidth="16.23606797749979" markerHeight="10.550836550532098" viewBox="-1.0 -1.3763819204711736 16.23606797749979 10.550836550532098" refX="-1.0" refY="3.8990363547948754"><path id="ProcessOnPath1137" d="M12.0 3.8990363547948754L0.0 7.798072709589751V0.0Z" stroke="#323232" stroke-width="2.0" fill="#323232" transform="matrix(1.0,0.0,0.0,1.0,0.0,0.0)"/></marker><marker id="ProcessOnMarker1140" markerUnits="userSpaceOnUse" orient="auto" markerWidth="16.23606797749979" markerHeight="10.550836550532098" viewBox="-1.0 -1.3763819204711736 16.23606797749979 10.550836550532098" refX="-1.0" refY="3.8990363547948754"><path id="ProcessOnPath1141" d="M12.0 3.8990363547948754L0.0 7.798072709589751V0.0Z" stroke="#323232" stroke-width="2.0" fill="#323232" transform="matrix(1.0,0.0,0.0,1.0,0.0,0.0)"/></marker></defs><g id="ProcessOnG1002"><path id="ProcessOnPath1003" d="M176.0 189.0H761.0V1217.5H176.0V189.0Z" fill="none"/><g id="ProcessOnG1004"><g id="ProcessOnG1005"><path id="ProcessOnPath1006" d="M364.5 747.5C364.50000000000006 919.4647638325945 233.03523616740551 1175.5 389.7639320225002 1175.5" stroke="#323232" stroke-width="2.0" stroke-dasharray="none" fill="none" marker-end="url(#ProcessOnMarker1007)"/></g><g id="ProcessOnG1009"><path id="ProcessOnPath1010" d="M274.75 747.5C274.75000000000006 926.4520885600389 226.04791143996113 1175.5 389.7639320225002 1175.5" stroke="#323232" stroke-width="2.0" stroke-dasharray="none" fill="none" marker-end="url(#ProcessOnMarker1011)"/></g><g id="ProcessOnG1013" transform="matrix(1.0,0.0,0.0,1.0,412.0,239.0)" opacity="1.0"><path id="ProcessOnPath1014" d="M0.0 0.0L120.0 0.0L120.0 44.0L0.0 44.0Z" stroke="#323232" stroke-width="2.0" stroke-dasharray="none" opacity="1.0" fill="#ffffff"/><g id="ProcessOnG1015" transform="matrix(1.0,0.0,0.0,1.0,10.0,13.875)"><text id="ProcessOnText1016" fill="#000000" font-size="13" x="49.0" y="13.325" font-family="微软雅黑" font-weight="normal" font-style="normal" text-decoration="none" family="微软雅黑" text-anchor="middle" size="13">[raw_file].xml</text></g></g><g id="ProcessOnG1017" transform="matrix(1.0,0.0,0.0,1.0,407.5,331.0)" opacity="1.0"><path id="ProcessOnPath1018" d="M0.0 0.0L129.0 0.0L129.0 44.0L0.0 44.0Z" stroke="#323232" stroke-width="2.0" stroke-dasharray="none" opacity="1.0" fill="#ffffff"/><g id="ProcessOnG1019" transform="matrix(1.0,0.0,0.0,1.0,10.0,13.875)"><text id="ProcessOnText1020" fill="#000000" font-size="13" x="53.5" y="13.325" font-family="微软雅黑" font-weight="normal" font-style="normal" text-decoration="none" family="微软雅黑" text-anchor="middle" size="13">[raw_file]-cat.json</text></g></g><g id="ProcessOnG1021" transform="matrix(1.0,0.0,0.0,1.0,223.0,448.0)" opacity="1.0"><path id="ProcessOnPath1022" d="M0.0 0.0L182.0 0.0L182.0 44.0L0.0 44.0Z" stroke="#323232" stroke-width="2.0" stroke-dasharray="none" opacity="1.0" fill="#ffffff"/><g id="ProcessOnG1023" transform="matrix(1.0,0.0,0.0,1.0,10.0,5.75)"><text id="ProcessOnText1024" fill="#000000" font-size="13" x="80.0" y="13.325" font-family="微软雅黑" font-weight="normal" font-style="normal" text-decoration="none" family="微软雅黑" text-anchor="middle" size="13">[raw_file]-[category_name</text><text id="ProcessOnText1025" fill="#000000" font-size="13" x="80.0" y="29.575" font-family="微软雅黑" font-weight="normal" font-style="normal" text-decoration="none" family="微软雅黑" text-anchor="middle" size="13">].json</text></g></g><g id="ProcessOnG1026" transform="matrix(1.0,0.0,0.0,1.0,233.5,534.5)" opacity="1.0"><path id="ProcessOnPath1027" d="M0.0 0.0L161.0 0.0L161.0 49.0L0.0 49.0Z" stroke="#323232" stroke-width="2.0" stroke-dasharray="none" opacity="1.0" fill="#ffffff"/><g id="ProcessOnG1028" transform="matrix(1.0,0.0,0.0,1.0,10.0,8.25)"><text id="ProcessOnText1029" fill="#000000" font-size="13" x="69.5" y="13.325" font-family="微软雅黑" font-weight="normal" font-style="normal" text-decoration="none" family="微软雅黑" text-anchor="middle" size="13">[raw_file]-[category_na</text><text id="ProcessOnText1030" fill="#000000" font-size="13" x="69.5" y="29.575" font-family="微软雅黑" font-weight="normal" font-style="normal" text-decoration="none" family="微软雅黑" text-anchor="middle" size="13">me]-qa.json</text></g></g><g id="ProcessOnG1031" transform="matrix(1.0,0.0,0.0,1.0,541.0,448.0)" opacity="1.0"><path id="ProcessOnPath1032" d="M0.0 0.0L129.0 0.0L129.0 44.0L0.0 44.0Z" stroke="#323232" stroke-width="2.0" stroke-dasharray="none" opacity="1.0" fill="#ffffff"/><g id="ProcessOnG1033" transform="matrix(1.0,0.0,0.0,1.0,10.0,13.875)"><text id="ProcessOnText1034" fill="#000000" font-size="13" x="53.5" y="13.325" font-family="微软雅黑" font-weight="normal" font-style="normal" text-decoration="none" family="微软雅黑" text-anchor="middle" size="13">[raw_file]-qa.json</text></g></g><g id="ProcessOnG1035" transform="matrix(1.0,0.0,0.0,1.0,541.0,655.5)" opacity="1.0"><path id="ProcessOnPath1036" d="M0.0 0.0L129.0 0.0L129.0 44.0L0.0 44.0Z" stroke="#323232" stroke-width="2.0" stroke-dasharray="none" opacity="1.0" fill="#ffffff"/><g id="ProcessOnG1037" transform="matrix(1.0,0.0,0.0,1.0,10.0,13.875)"><text id="ProcessOnText1038" fill="#000000" font-size="13" x="53.5" y="13.325" font-family="微软雅黑" font-weight="normal" font-style="normal" text-decoration="none" family="微软雅黑" text-anchor="middle" size="13">[raw_file]</text></g></g><g id="ProcessOnG1039" transform="matrix(1.0,0.0,0.0,1.0,249.5,631.5)" opacity="1.0"><path id="ProcessOnPath1040" d="M0.0 0.0L129.0 0.0L129.0 44.0L0.0 44.0Z" stroke="#323232" stroke-width="2.0" stroke-dasharray="none" opacity="1.0" fill="#ffffff"/><g id="ProcessOnG1041" transform="matrix(1.0,0.0,0.0,1.0,10.0,13.875)"><text id="ProcessOnText1042" fill="#000000" font-size="13" x="53.5" y="13.325" font-family="微软雅黑" font-weight="normal" font-style="normal" text-decoration="none" family="微软雅黑" text-anchor="middle" size="13">[raw_file].dat</text></g></g><g id="ProcessOnG1043"><path id="ProcessOnPath1044" d="M472.0 283.0C472.0 302.2 472.0 311.8 472.0 315.7639320225002" stroke="#323232" stroke-width="2.0" stroke-dasharray="none" fill="none" marker-end="url(#ProcessOnMarker1045)"/></g><g id="ProcessOnG1047"><path id="ProcessOnPath1048" d="M472.0 375.0C472.0 444.61953748769093 314.0 378.38046251230907 314.0 432.7639320225002" stroke="#323232" stroke-width="2.0" stroke-dasharray="none" fill="none" marker-end="url(#ProcessOnMarker1049)"/></g><g id="ProcessOnG1051"><path id="ProcessOnPath1052" d="M472.0 375.0C472.0 435.862139298582 605.5 387.137860701418 605.5 432.7639320225002" stroke="#323232" stroke-width="2.0" stroke-dasharray="none" fill="none" marker-end="url(#ProcessOnMarker1053)"/></g><g id="ProcessOnG1055"><path id="ProcessOnPath1056" d="M314.0 492.0C314.0 509.0 314.0 517.5 314.0 519.2639320225002" stroke="#323232" stroke-width="2.0" stroke-dasharray="none" fill="none" marker-end="url(#ProcessOnMarker1057)"/></g><g id="ProcessOnG1059"><path id="ProcessOnPath1060" d="M605.5 492.0C605.5 557.4 605.5 590.1 605.5 640.2639320225002" stroke="#323232" stroke-width="2.0" stroke-dasharray="none" fill="none" marker-end="url(#ProcessOnMarker1061)"/></g><g id="ProcessOnG1063"><path id="ProcessOnPath1064" d="M314.0 583.5C314.0 602.7 314.0 612.3 314.0 616.2639320225002" stroke="#323232" stroke-width="2.0" stroke-dasharray="none" fill="none" marker-end="url(#ProcessOnMarker1065)"/></g><g id="ProcessOnG1067" transform="matrix(1.0,0.0,0.0,1.0,541.0,850.5)" opacity="1.0"><path id="ProcessOnPath1068" d="M0.0 0.0L129.0 0.0L129.0 44.0L0.0 44.0Z" stroke="#323232" stroke-width="2.0" stroke-dasharray="none" opacity="1.0" fill="#ffffff"/><g id="ProcessOnG1069" transform="matrix(1.0,0.0,0.0,1.0,10.0,13.875)"><text id="ProcessOnText1070" fill="#000000" font-size="13" x="53.5" y="13.325" font-family="微软雅黑" font-weight="normal" font-style="normal" text-decoration="none" family="微软雅黑" text-anchor="middle" size="13">[raw_file].bin</text></g></g><g id="ProcessOnG1071"><path id="ProcessOnPath1072" d="M605.5 699.5C605.5 759.9 605.5 790.1 605.5 835.2639320225002" stroke="#323232" stroke-width="2.0" stroke-dasharray="none" fill="none" marker-end="url(#ProcessOnMarker1073)"/></g><g id="ProcessOnG1075" transform="matrix(1.0,0.0,0.0,1.0,327.0,703.5)" opacity="1.0"><path id="ProcessOnPath1076" d="M0.0 0.0L75.0 0.0L75.0 44.0L0.0 44.0Z" stroke="#323232" stroke-width="2.0" stroke-dasharray="none" opacity="1.0" fill="#ffffff"/><g id="ProcessOnG1077" transform="matrix(1.0,0.0,0.0,1.0,10.0,13.875)"><text id="ProcessOnText1078" fill="#000000" font-size="13" x="26.5" y="13.325" font-family="微软雅黑" font-weight="normal" font-style="normal" text-decoration="none" family="微软雅黑" text-anchor="middle" size="13">bookTag</text></g></g><g id="ProcessOnG1079" transform="matrix(1.0,0.0,0.0,1.0,247.0,703.5)" opacity="1.0"><path id="ProcessOnPath1080" d="M0.0 0.0L55.5 0.0L55.5 44.0L0.0 44.0Z" stroke="#323232" stroke-width="2.0" stroke-dasharray="none" opacity="1.0" fill="#ffffff"/><g id="ProcessOnG1081" transform="matrix(1.0,0.0,0.0,1.0,10.0,13.875)"><text id="ProcessOnText1082" fill="#000000" font-size="13" x="16.75" y="13.325" font-family="微软雅黑" font-weight="normal" font-style="normal" text-decoration="none" family="微软雅黑" text-anchor="middle" size="13">book</text></g></g><g id="ProcessOnG1083" transform="matrix(1.0,0.0,0.0,1.0,229.0,778.5)" opacity="1.0"><path id="ProcessOnPath1084" d="M0.0 0.0L176.0 0.0L176.0 44.0L0.0 44.0Z" stroke="#323232" stroke-width="2.0" stroke-dasharray="none" opacity="1.0" fill="#ffffff"/><g id="ProcessOnG1085" transform="matrix(1.0,0.0,0.0,1.0,10.0,5.75)"><text id="ProcessOnText1086" fill="#000000" font-size="13" x="77.0" y="13.325" font-family="微软雅黑" font-weight="normal" font-style="normal" text-decoration="none" family="微软雅黑" text-anchor="middle" size="13">[timestamp].[username].a</text><text id="ProcessOnText1087" fill="#000000" font-size="13" x="77.0" y="29.575" font-family="微软雅黑" font-weight="normal" font-style="normal" text-decoration="none" family="微软雅黑" text-anchor="middle" size="13">ctual.ti.final</text></g></g><g id="ProcessOnG1088" transform="matrix(1.0,0.0,0.0,1.0,250.0,850.5)" opacity="1.0"><path id="ProcessOnPath1089" d="M0.0 0.0L134.0 0.0L134.0 44.0L0.0 44.0Z" stroke="#323232" stroke-width="2.0" stroke-dasharray="none" opacity="1.0" fill="#ffffff"/><g id="ProcessOnG1090" transform="matrix(1.0,0.0,0.0,1.0,10.0,5.75)"><text id="ProcessOnText1091" fill="#000000" font-size="13" x="56.0" y="13.325" font-family="微软雅黑" font-weight="normal" font-style="normal" text-decoration="none" family="微软雅黑" text-anchor="middle" size="13">probTable-[raw_fil</text><text id="ProcessOnText1092" fill="#000000" font-size="13" x="56.0" y="29.575" font-family="微软雅黑" font-weight="normal" font-style="normal" text-decoration="none" family="微软雅黑" text-anchor="middle" size="13">e]-a2q.json</text></g></g><g id="ProcessOnG1093" transform="matrix(1.0,0.0,0.0,1.0,405.0,954.5)" opacity="1.0"><path id="ProcessOnPath1094" d="M0.0 0.0L134.0 0.0L134.0 44.0L0.0 44.0Z" stroke="#323232" stroke-width="2.0" stroke-dasharray="none" opacity="1.0" fill="#ffffff"/><g id="ProcessOnG1095" transform="matrix(1.0,0.0,0.0,1.0,10.0,5.75)"><text id="ProcessOnText1096" fill="#000000" font-size="13" x="56.0" y="13.325" font-family="微软雅黑" font-weight="normal" font-style="normal" text-decoration="none" family="微软雅黑" text-anchor="middle" size="13">WEC-[raw_file]-in</text><text id="ProcessOnText1097" fill="#000000" font-size="13" x="56.0" y="29.575" font-family="微软雅黑" font-weight="normal" font-style="normal" text-decoration="none" family="微软雅黑" text-anchor="middle" size="13">put.npz</text></g></g><g id="ProcessOnG1098" transform="matrix(1.0,0.0,0.0,1.0,405.0,1057.5)" opacity="1.0"><path id="ProcessOnPath1099" d="M0.0 0.0L134.0 0.0L134.0 44.0L0.0 44.0Z" stroke="#323232" stroke-width="2.0" stroke-dasharray="none" opacity="1.0" fill="#ffffff"/><g id="ProcessOnG1100" transform="matrix(1.0,0.0,0.0,1.0,10.0,13.875)"><text id="ProcessOnText1101" fill="#000000" font-size="13" x="56.0" y="13.325" font-family="微软雅黑" font-weight="normal" font-style="normal" text-decoration="none" family="微软雅黑" text-anchor="middle" size="13">t_matrix.npy</text></g></g><g id="ProcessOnG1102" transform="matrix(1.0,0.0,0.0,1.0,405.0,1153.5)" opacity="1.0"><path id="ProcessOnPath1103" d="M0.0 0.0L134.0 0.0L134.0 44.0L0.0 44.0Z" stroke="#323232" stroke-width="2.0" stroke-dasharray="none" opacity="1.0" fill="#ffffff"/><g id="ProcessOnG1104" transform="matrix(1.0,0.0,0.0,1.0,10.0,13.875)"><text id="ProcessOnText1105" fill="#000000" font-size="13" x="56.0" y="13.325" font-family="微软雅黑" font-weight="normal" font-style="normal" text-decoration="none" family="微软雅黑" text-anchor="middle" size="13">Evaluation Result</text></g></g><g id="ProcessOnG1106"><path id="ProcessOnPath1107" d="M314.0 675.5C314.0 694.7854867711447 274.75 684.2145132288553 274.75 688.2639320225002" stroke="#323232" stroke-width="2.0" stroke-dasharray="none" fill="none" marker-end="url(#ProcessOnMarker1108)"/></g><g id="ProcessOnG1110"><path id="ProcessOnPath1111" d="M314.0 675.5C314.0 698.597185975785 364.5 680.402814024215 364.5 688.2639320225002" stroke="#323232" stroke-width="2.0" stroke-dasharray="none" fill="none" marker-end="url(#ProcessOnMarker1112)"/></g><g id="ProcessOnG1114"><path id="ProcessOnPath1115" d="M274.75 747.5C274.75 768.4611545483544 317.0 757.5388454516456 317.0 763.2639320225002" stroke="#323232" stroke-width="2.0" stroke-dasharray="none" fill="none" marker-end="url(#ProcessOnMarker1116)"/></g><g id="ProcessOnG1118"><path id="ProcessOnPath1119" d="M364.5 747.5C364.5 770.1883229878279 317.0 755.8116770121721 317.0 763.2639320225002" stroke="#323232" stroke-width="2.0" stroke-dasharray="none" fill="none" marker-end="url(#ProcessOnMarker1120)"/></g><g id="ProcessOnG1122"><path id="ProcessOnPath1123" d="M317.0 822.5C317.0 833.7 317.0 839.3 317.0 835.2639320225002" stroke="#323232" stroke-width="2.0" stroke-dasharray="none" fill="none" marker-end="url(#ProcessOnMarker1124)"/></g><g id="ProcessOnG1126"><path id="ProcessOnPath1127" d="M317.0 894.5C317.0 960.9830805543786 472.0 888.0169194456214 472.0 939.2639320225002" stroke="#323232" stroke-width="2.0" stroke-dasharray="none" fill="none" marker-end="url(#ProcessOnMarker1128)"/></g><g id="ProcessOnG1130"><path id="ProcessOnPath1131" d="M605.5 894.5C605.5 953.0453670242147 472.0 895.9546329757853 472.0 939.2639320225002" stroke="#323232" stroke-width="2.0" stroke-dasharray="none" fill="none" marker-end="url(#ProcessOnMarker1132)"/></g><g id="ProcessOnG1134"><path id="ProcessOnPath1135" d="M472.0 998.5C472.0 1022.1 472.0 1033.9 472.0 1042.2639320225003" stroke="#323232" stroke-width="2.0" stroke-dasharray="none" fill="none" marker-end="url(#ProcessOnMarker1136)"/></g><g id="ProcessOnG1138"><path id="ProcessOnPath1139" d="M472.0 1101.5C472.0 1122.3 472.0 1132.7 472.0 1138.2639320225003" stroke="#323232" stroke-width="2.0" stroke-dasharray="none" fill="none" marker-end="url(#ProcessOnMarker1140)"/></g><g id="ProcessOnG1142" transform="matrix(1.0,0.0,0.0,1.0,522.0,628.0)" opacity="1.0"><path id="ProcessOnPath1143" d="M0.0 4.0Q0.0 0.0 4.0 0.0L163.0 0.0Q167.0 0.0 167.0 4.0L167.0 275.0Q167.0 279.0 163.0 279.0L4.0 279.0Q0.0 279.0 0.0 275.0Z" stroke="#000000" stroke-width="2.0" stroke-dasharray="10.0 4.0" opacity="1.0" fill="none"/></g><g id="ProcessOnG1144" transform="matrix(1.0,0.0,0.0,1.0,208.0,628.0)" opacity="1.0"><path id="ProcessOnPath1145" d="M0.0 4.0Q0.0 0.0 4.0 0.0L208.0 0.0Q212.0 0.0 212.0 4.0L212.0 275.0Q212.0 279.0 208.0 279.0L4.0 279.0Q0.0 279.0 0.0 275.0Z" stroke="#000000" stroke-width="2.0" stroke-dasharray="10.0 4.0" opacity="1.0" fill="none"/></g><g id="ProcessOnG1146" transform="matrix(1.0,0.0,0.0,1.0,392.5,929.0)" opacity="1.0"><path id="ProcessOnPath1147" d="M0.0 4.0Q0.0 0.0 4.0 0.0L155.0 0.0Q159.0 0.0 159.0 4.0L159.0 180.0Q159.0 184.0 155.0 184.0L4.0 184.0Q0.0 184.0 0.0 180.0Z" stroke="#323232" stroke-width="2.0" stroke-dasharray="10.0 4.0" opacity="1.0" fill="none"/></g><g id="ProcessOnG1148" transform="matrix(1.0,0.0,0.0,1.0,196.0,910.0)" opacity="1.0"><path id="ProcessOnPath1149" d="M0.0 0.0L202.0 0.0L202.0 38.0L0.0 38.0Z" stroke="none" stroke-width="0.0" stroke-dasharray="none" opacity="1.0" fill="none"/><g id="ProcessOnG1150" transform="matrix(1.0,0.0,0.0,1.0,0.0,2.75)"><text id="ProcessOnText1151" fill="#000000" font-size="13" x="100.0" y="13.325" font-family="Verdana" font-weight="bold" font-style="normal" text-decoration="none" family="Verdana" text-anchor="middle" size="13">THUTag</text><text id="ProcessOnText1152" fill="#000000" font-size="13" x="100.0" y="29.575" font-family="Verdana" font-weight="bold" font-style="normal" text-decoration="none" family="Verdana" text-anchor="middle" size="13">(IBM Translation Model 1)</text></g></g><g id="ProcessOnG1153" transform="matrix(1.0,0.0,0.0,1.0,539.0,910.0)" opacity="1.0"><path id="ProcessOnPath1154" d="M0.0 0.0L202.0 0.0L202.0 38.0L0.0 38.0Z" stroke="none" stroke-width="0.0" stroke-dasharray="none" opacity="1.0" fill="none"/><g id="ProcessOnG1155" transform="matrix(1.0,0.0,0.0,1.0,0.0,10.875)"><text id="ProcessOnText1156" fill="#000000" font-size="13" x="100.0" y="13.325" font-family="Verdana" font-weight="bold" font-style="normal" text-decoration="none" family="Verdana" text-anchor="middle" size="13">Word2Vec Embedding</text></g></g><g id="ProcessOnG1157" transform="matrix(1.0,0.0,0.0,1.0,208.0,209.0)" opacity="1.0"><path id="ProcessOnPath1158" d="M0.0 4.0Q0.0 0.0 4.0 0.0L477.0 0.0Q481.0 0.0 481.0 4.0L481.0 380.0Q481.0 384.0 477.0 384.0L4.0 384.0Q0.0 384.0 0.0 380.0Z" stroke="#323232" stroke-width="2.0" stroke-dasharray="10.0 4.0" opacity="1.0" fill="none"/></g><g id="ProcessOnG1159" transform="matrix(1.0,0.0,0.0,1.0,371.0,593.0)" opacity="1.0"><path id="ProcessOnPath1160" d="M0.0 0.0L202.0 0.0L202.0 38.0L0.0 38.0Z" stroke="none" stroke-width="0.0" stroke-dasharray="none" opacity="1.0" fill="none"/><g id="ProcessOnG1161" transform="matrix(1.0,0.0,0.0,1.0,0.0,10.875)"><text id="ProcessOnText1162" fill="#000000" font-size="13" x="100.0" y="13.325" font-family="Verdana" font-weight="bold" font-style="normal" text-decoration="none" family="Verdana" text-anchor="middle" size="13">Text preprocessing</text></g></g><g id="ProcessOnG1163" transform="matrix(1.0,0.0,0.0,1.0,361.0,1108.0)" opacity="1.0"><path id="ProcessOnPath1164" d="M0.0 0.0L202.0 0.0L202.0 38.0L0.0 38.0Z" stroke="none" stroke-width="0.0" stroke-dasharray="none" opacity="1.0" fill="none"/><g id="ProcessOnG1165" transform="matrix(1.0,0.0,0.0,1.0,0.0,10.875)"><text id="ProcessOnText1166" fill="#000000" font-size="13" x="100.0" y="13.325" font-family="Verdana" font-weight="bold" font-style="normal" text-decoration="none" family="Verdana" text-anchor="middle" size="13">Tensorflow Training</text></g></g></g></g></svg>